<svg xmlns:xlink="http://www.w3.org/1999/xlink" xmlns="http://www.w3.org/2000/svg" width="157" height="60" viewBox="0 0 157 60" fill="none">
<path d="M18.6666 9.33331C18.6666 4.17021 14.4964 0 9.33331 0C4.20996 0 0.0397484 4.17021 0 9.29356C0.0397484 8.02266 1.07238 7.02978 2.34328 7.02978C3.61419 7.02978 4.68649 8.06241 4.68649 9.37306C4.68649 14.9333 4.68649 27.285 4.68649 32.7262C4.68649 36.5786 7.82407 39.7162 11.6766 39.7162C15.529 39.7162 18.6666 36.5786 18.6666 32.7262V9.33331Z" fill="#DCDDDE"/>
<path d="M37.3331 18.6933C37.3331 13.5302 33.1629 9.35999 27.9998 9.35999C22.8764 9.35999 18.7063 13.5302 18.6665 18.6536C18.7063 17.3827 19.7388 16.3897 21.0098 16.3897C22.2807 16.3897 23.353 17.4224 23.353 18.733C23.353 24.2933 23.353 36.645 23.353 42.0862C23.353 45.9386 26.4906 49.0762 30.3431 49.0762C34.1955 49.0762 37.3331 45.9386 37.3331 42.0862V18.6933Z" fill="#DCDDDE"/>
<path d="M56 29.1915C56 24.0284 51.8298 19.8582 46.6667 19.8582C41.5433 19.8582 37.3731 24.0284 37.3334 29.1517C37.3731 27.8808 38.4057 26.8879 39.6767 26.8879C40.9476 26.8879 42.0199 27.9206 42.0199 29.2312C42.0199 34.7914 42.0199 47.1432 42.0199 52.5843C42.0199 56.4368 45.1574 59.5744 49.0099 59.5744C52.8624 59.5744 56 56.4368 56 52.5843V29.1915Z" fill="#DCDDDE"/>
<path d="M73 20.9066H77.1841L82.7875 34.54H83.0087L88.612 20.9066H92.7961V39.7215H89.5152V26.7954H89.3401L84.1238 39.6663H81.6723L76.456 26.7679H76.2809V39.7215H73V20.9066Z" fill="#DCDDDE"/>
<path d="M102.547 39.9971C101.164 39.9971 99.9662 39.6939 98.9525 39.0876C97.9387 38.4812 97.1522 37.633 96.5931 36.5428C96.0402 35.4526 95.7637 34.1787 95.7637 32.721C95.7637 31.2633 96.0402 29.9864 96.5931 28.89C97.1522 27.7937 97.9387 26.9424 98.9525 26.3361C99.9662 25.7297 101.164 25.4266 102.547 25.4266C103.929 25.4266 105.127 25.7297 106.141 26.3361C107.155 26.9424 107.938 27.7937 108.491 28.89C109.05 29.9864 109.33 31.2633 109.33 32.721C109.33 34.1787 109.05 35.4526 108.491 36.5428C107.938 37.633 107.155 38.4812 106.141 39.0876C105.127 39.6939 103.929 39.9971 102.547 39.9971ZM102.565 37.3329C103.315 37.3329 103.941 37.1277 104.445 36.7173C104.949 36.3009 105.324 35.7435 105.57 35.0453C105.821 34.3471 105.947 33.5693 105.947 32.7118C105.947 31.8482 105.821 31.0674 105.57 30.3691C105.324 29.6648 104.949 29.1044 104.445 28.6879C103.941 28.2715 103.315 28.0632 102.565 28.0632C101.797 28.0632 101.158 28.2715 100.648 28.6879C100.144 29.1044 99.7665 29.6648 99.5146 30.3691C99.2689 31.0674 99.146 31.8482 99.146 32.7118C99.146 33.5693 99.2689 34.3471 99.5146 35.0453C99.7665 35.7435 100.144 36.3009 100.648 36.7173C101.158 37.1277 101.797 37.3329 102.565 37.3329Z" fill="#DCDDDE"/>
<path d="M119.23 25.6103V28.1826H111.092V25.6103H119.23ZM113.101 22.2295H116.438V35.4771C116.438 35.9242 116.505 36.2672 116.64 36.506C116.782 36.7388 116.966 36.898 117.193 36.9837C117.421 37.0695 117.673 37.1124 117.949 37.1124C118.158 37.1124 118.348 37.0971 118.52 37.0664C118.699 37.0358 118.834 37.0082 118.926 36.9837L119.488 39.5837C119.31 39.6449 119.055 39.7123 118.723 39.7858C118.398 39.8593 117.998 39.9021 117.525 39.9144C116.69 39.9389 115.937 39.8133 115.267 39.5377C114.597 39.256 114.066 38.8211 113.673 38.2332C113.286 37.6452 113.095 36.9103 113.101 36.0283V22.2295Z" fill="#DCDDDE"/>
<path d="M122.02 39.7215V25.6103H125.356V39.7215H122.02ZM123.698 23.6075C123.163 23.6075 122.705 23.433 122.324 23.0839C121.95 22.7287 121.762 22.303 121.762 21.8069C121.762 21.3047 121.953 20.879 122.334 20.5299C122.715 20.1747 123.169 19.9971 123.698 19.9971C124.226 19.9971 124.678 20.1747 125.052 20.5299C125.433 20.879 125.624 21.3047 125.624 21.8069C125.624 22.303 125.433 22.7287 125.052 23.0839C124.678 23.433 124.226 23.6075 123.698 23.6075Z" fill="#DCDDDE"/>
<path d="M134.962 39.9971C133.58 39.9971 132.381 39.6939 131.368 39.0876C130.354 38.4812 129.567 37.633 129.008 36.5428C128.455 35.4526 128.179 34.1787 128.179 32.721C128.179 31.2633 128.455 29.9864 129.008 28.89C129.567 27.7937 130.354 26.9424 131.368 26.3361C132.381 25.7297 133.58 25.4266 134.962 25.4266C136.344 25.4266 137.542 25.7297 138.556 26.3361C139.57 26.9424 140.353 27.7937 140.906 28.89C141.465 29.9864 141.745 31.2633 141.745 32.721C141.745 34.1787 141.465 35.4526 140.906 36.5428C140.353 37.633 139.57 38.4812 138.556 39.0876C137.542 39.6939 136.344 39.9971 134.962 39.9971ZM134.98 37.3329C135.73 37.3329 136.357 37.1277 136.86 36.7173C137.364 36.3009 137.739 35.7435 137.985 35.0453C138.237 34.3471 138.363 33.5693 138.363 32.7118C138.363 31.8482 138.237 31.0674 137.985 30.3691C137.739 29.6648 137.364 29.1044 136.86 28.6879C136.357 28.2715 135.73 28.0632 134.98 28.0632C134.212 28.0632 133.573 28.2715 133.063 28.6879C132.56 29.1044 132.182 29.6648 131.93 30.3691C131.684 31.0674 131.561 31.8482 131.561 32.7118C131.561 33.5693 131.684 34.3471 131.93 35.0453C132.182 35.7435 132.56 36.3009 133.063 36.7173C133.573 37.1277 134.212 37.3329 134.98 37.3329Z" fill="#DCDDDE"/>
<path d="M147.913 31.4532V39.7215H144.577V25.6103H147.765V28.0081H147.931C148.257 27.218 148.776 26.5902 149.489 26.1248C150.208 25.6593 151.095 25.4266 152.152 25.4266C153.129 25.4266 153.98 25.6348 154.705 26.0513C155.436 26.4677 156.001 27.071 156.401 27.8611C156.806 28.6512 157.006 29.6097 157 30.7366V39.7215H153.664V31.2511C153.664 30.3079 153.418 29.5699 152.926 29.037C152.441 28.5042 151.768 28.2378 150.908 28.2378C150.324 28.2378 149.805 28.3664 149.351 28.6236C148.902 28.8747 148.549 29.2391 148.291 29.7169C148.039 30.1946 147.913 30.7734 147.913 31.4532Z" fill="#DCDDDE"/>
</svg>