<svg xmlns:xlink="http://www.w3.org/1999/xlink" xmlns="http://www.w3.org/2000/svg" width="167" height="61" viewBox="0 0 167 61" fill="none">
<path d="M60.5687 60.5687V30.2844C60.5687 13.5483 47.0205 0 30.2844 0C13.5483 0 0 13.5483 0 30.2844C0 47.0205 13.5483 60.5687 30.2844 60.5687H60.5687ZM50.4579 51.1394H30.5188C19.4997 51.1394 10.5796 42.2192 10.5796 31.2002C10.5796 20.1812 19.4997 11.261 30.5188 11.261C41.5378 11.261 50.4579 20.1812 50.4579 31.2002V51.1394Z" fill="#DCDDDE"/>
<path d="M85.7672 43.7113H79V24H85.9037C87.8864 24 89.5895 24.3946 91.0132 25.1838C92.4433 25.9666 93.5419 27.0927 94.309 28.5621C95.0761 30.0314 95.4596 31.7895 95.4596 33.8364C95.4596 35.8896 95.0728 37.6542 94.2993 39.1299C93.5322 40.6057 92.4238 41.7382 90.9742 42.5274C89.531 43.3166 87.7954 43.7113 85.7672 43.7113ZM82.6176 40.6218H85.5917C86.9828 40.6218 88.1432 40.3715 89.0727 39.871C90.0023 39.3641 90.7012 38.6102 91.1692 37.6092C91.6372 36.6019 91.8713 35.3442 91.8713 33.8364C91.8713 32.3285 91.6372 31.0773 91.1692 30.0828C90.7012 29.0818 90.0088 28.3343 89.0922 27.8402C88.1822 27.3398 87.051 27.0895 85.6989 27.0895H82.6176V40.6218Z" fill="#DCDDDE"/>
<path d="M105.274 44C103.811 44 102.544 43.6824 101.471 43.0472C100.398 42.4119 99.5664 41.5233 98.9748 40.3811C98.3898 39.239 98.0973 37.9044 98.0973 36.3773C98.0973 34.8502 98.3898 33.5124 98.9748 32.3638C99.5664 31.2153 100.398 30.3234 101.471 29.6882C102.544 29.0529 103.811 28.7353 105.274 28.7353C106.737 28.7353 108.004 29.0529 109.077 29.6882C110.149 30.3234 110.978 31.2153 111.563 32.3638C112.155 33.5124 112.451 34.8502 112.451 36.3773C112.451 37.9044 112.155 39.239 111.563 40.3811C110.978 41.5233 110.149 42.4119 109.077 43.0472C108.004 43.6824 106.737 44 105.274 44ZM105.293 41.2089C106.087 41.2089 106.75 40.9939 107.283 40.564C107.816 40.1277 108.212 39.5438 108.472 38.8123C108.739 38.0808 108.872 37.266 108.872 36.3677C108.872 35.4629 108.739 34.6449 108.472 33.9134C108.212 33.1755 107.816 32.5884 107.283 32.1521C106.75 31.7158 106.087 31.4976 105.293 31.4976C104.481 31.4976 103.805 31.7158 103.265 32.1521C102.732 32.5884 102.332 33.1755 102.066 33.9134C101.806 34.6449 101.676 35.4629 101.676 36.3677C101.676 37.266 101.806 38.0808 102.066 38.8123C102.332 39.5438 102.732 40.1277 103.265 40.564C103.805 40.9939 104.481 41.2089 105.293 41.2089Z" fill="#DCDDDE"/>
<path d="M122.926 28.9278V31.6227H114.316V28.9278H122.926ZM116.441 25.3859H119.971V39.2647C119.971 39.7331 120.043 40.0924 120.186 40.3426C120.335 40.5865 120.53 40.7533 120.771 40.8431C121.011 40.9329 121.278 40.9779 121.57 40.9779C121.791 40.9779 121.993 40.9618 122.175 40.9297C122.363 40.8977 122.506 40.8688 122.604 40.8431L123.199 43.5669C123.01 43.6311 122.74 43.7016 122.389 43.7786C122.045 43.8556 121.622 43.9005 121.122 43.9134C120.238 43.939 119.441 43.8075 118.733 43.5188C118.024 43.2236 117.462 42.768 117.046 42.1521C116.636 41.5361 116.435 40.7661 116.441 39.8422V25.3859Z" fill="#DCDDDE"/>
<path d="M126.356 43.7113V24H129.973V40.718H138.769V43.7113H126.356Z" fill="#DCDDDE"/>
<path d="M148.285 44C146.823 44 145.555 43.6824 144.483 43.0472C143.41 42.4119 142.578 41.5233 141.986 40.3811C141.401 39.239 141.109 37.9044 141.109 36.3773C141.109 34.8502 141.401 33.5124 141.986 32.3638C142.578 31.2153 143.41 30.3234 144.483 29.6882C145.555 29.0529 146.823 28.7353 148.285 28.7353C149.748 28.7353 151.016 29.0529 152.088 29.6882C153.161 30.3234 153.99 31.2153 154.575 32.3638C155.166 33.5124 155.462 34.8502 155.462 36.3773C155.462 37.9044 155.166 39.239 154.575 40.3811C153.99 41.5233 153.161 42.4119 152.088 43.0472C151.016 43.6824 149.748 44 148.285 44ZM148.305 41.2089C149.098 41.2089 149.761 40.9939 150.294 40.564C150.827 40.1277 151.224 39.5438 151.484 38.8123C151.75 38.0808 151.884 37.266 151.884 36.3677C151.884 35.4629 151.75 34.6449 151.484 33.9134C151.224 33.1755 150.827 32.5884 150.294 32.1521C149.761 31.7158 149.098 31.4976 148.305 31.4976C147.492 31.4976 146.816 31.7158 146.277 32.1521C145.744 32.5884 145.344 33.1755 145.077 33.9134C144.817 34.6449 144.687 35.4629 144.687 36.3677C144.687 37.266 144.817 38.0808 145.077 38.8123C145.344 39.5438 145.744 40.1277 146.277 40.564C146.816 40.9939 147.492 41.2089 148.305 41.2089Z" fill="#DCDDDE"/>
<path d="M158.458 43.7113V28.9278H161.881V31.3917H162.037C162.31 30.5383 162.778 29.8807 163.441 29.4187C164.11 28.9503 164.874 28.7161 165.732 28.7161C165.927 28.7161 166.145 28.7257 166.386 28.7449C166.633 28.7578 166.837 28.7802 167 28.8123V32.0173C166.85 31.966 166.613 31.9211 166.288 31.8826C165.97 31.8377 165.661 31.8152 165.362 31.8152C164.718 31.8152 164.14 31.9532 163.626 32.2291C163.119 32.4986 162.719 32.8739 162.427 33.3551C162.134 33.8364 161.988 34.3914 161.988 35.0202V43.7113H158.458Z" fill="#DCDDDE"/>
<path d="M30.2843 24.8201C30.2843 28.3329 27.4173 31.1998 23.9046 31.1998C20.3919 31.1998 17.5249 28.3329 17.5249 24.8201C17.5249 21.3074 20.3919 18.4404 23.9046 18.4404C27.4173 18.4404 30.2843 21.3074 30.2843 24.8201ZM36.664 18.4404C33.1513 18.4404 30.2843 21.3074 30.2843 24.8201C30.2843 28.3329 33.1513 31.1998 36.664 31.1998C40.1768 31.1998 43.0438 28.3329 43.0438 24.8201C43.0438 21.3074 40.1768 18.4404 36.664 18.4404ZM23.9046 31.1998C20.3919 31.1998 17.5249 34.0668 17.5249 37.5796C17.5249 41.0923 20.3919 43.9593 23.9046 43.9593C27.4173 43.9593 30.2843 41.0923 30.2843 37.5796C30.2843 34.0668 27.4173 31.1998 23.9046 31.1998ZM36.664 31.1998C33.1513 31.1998 30.2843 34.0668 30.2843 37.5796C30.2843 41.0923 33.1513 43.9593 36.664 43.9593C40.1768 43.9593 43.0438 41.0923 43.0438 37.5796C43.0438 34.0668 40.1768 31.1998 36.664 31.1998Z" fill="#DCDDDE"/>
</svg>