<svg xmlns:xlink="http://www.w3.org/1999/xlink" xmlns="http://www.w3.org/2000/svg" width="144" height="58" viewBox="0 0 144 58" fill="none">
<path fill-rule="evenodd" clip-rule="evenodd" d="M36.7714 54.5836H38.1548H36.7714V51.9854C36.8051 51.9854 36.8051 51.9854 36.8051 51.9854C36.8388 51.9854 36.9063 51.9854 36.9401 51.9854C37.5812 51.9516 38.1211 51.6817 38.5597 51.243C39.0659 50.7706 39.3021 50.1633 39.3021 49.4547C39.3021 48.7461 39.0659 48.1724 38.5597 47.6663C38.1211 47.1939 37.5812 46.9577 36.9401 46.8902C36.9063 46.8902 36.8726 46.8902 36.8051 46.8902H36.7714V44.3932H38.1548H36.7714V41.8288C36.8051 41.8288 36.8051 41.8288 36.8051 41.8288C36.8388 41.8288 36.9063 41.8288 36.9401 41.8288C37.5812 41.7951 38.1211 41.5251 38.5597 41.0865C39.0659 40.5803 39.3021 40.0067 39.3021 39.2981C39.3021 38.5895 39.0659 38.0159 38.5597 37.5097C38.1211 37.0373 37.5812 36.8011 36.9401 36.7336C36.9063 36.7336 36.8726 36.7336 36.8051 36.7336H36.7714V34.2367V31.6047C36.8051 31.6047 36.8051 31.6047 36.8051 31.6047C36.8388 31.6047 36.9063 31.6047 36.9401 31.6047C37.5812 31.5372 38.1211 31.301 38.5597 30.8624C39.0659 30.3562 39.3021 29.7489 39.3021 29.0403C39.3021 28.3317 39.0659 27.758 38.5597 27.2519C38.1211 26.7795 37.5812 26.5433 36.9401 26.5096C36.9063 26.5096 36.8726 26.5096 36.8051 26.5096H36.7714V24.0126H38.1548H36.7714V21.4144C36.8051 21.4144 36.8051 21.4144 36.8051 21.4144C36.8388 21.4144 36.9063 21.4144 36.9401 21.4144C37.5812 21.3807 38.1211 21.1107 38.5597 20.6721C39.0659 20.1659 39.3021 19.5585 39.3021 18.8499C39.3021 18.1413 39.0659 17.5677 38.5597 17.0616C38.1211 16.5892 37.5812 16.353 36.9401 16.3192C36.9063 16.3192 36.8726 16.3192 36.8051 16.3192H36.7714V13.7885H38.1548H36.7714V11.2241C36.8051 11.2241 36.8051 11.2241 36.8051 11.2241C36.8388 11.2241 36.9063 11.2241 36.9401 11.2241C37.5812 11.1903 38.1211 10.9204 38.5597 10.4817C39.0659 10.0093 39.3021 9.40196 39.3021 8.69336C39.3021 7.98476 39.0659 7.41113 38.5597 6.90499C38.1211 6.43259 37.5812 6.19639 36.9401 6.12891C36.9063 6.12891 36.8726 6.12891 36.8051 6.12891H36.7714V3.5982H38.1548H36.7714V1H41.5966C44.2623 1.03374 46.8605 1.57363 49.3237 2.6534C51.6519 3.66568 53.744 5.11662 55.5324 6.93873C57.3545 8.76085 58.7379 10.8529 59.7502 13.2149C60.695 15.5094 61.2012 17.9051 61.2686 20.4021V21.4144C61.2012 23.9451 60.695 26.3408 59.7502 28.6354C58.7379 31.0311 57.3545 33.1569 55.5324 34.9453C53.744 36.7674 51.6519 38.1846 49.3237 39.1631C46.8605 40.2091 44.296 40.749 41.5966 40.7828H41.1917L57.5907 57.1143H37.21C37.1425 57.1143 37.0413 57.1143 36.9738 57.1143C36.9401 57.1143 36.9063 57.1143 36.8388 57.1143H36.8051V54.5836H36.7714Z" fill="#DCDDDE"/>
<path d="M36.7714 54.5836H38.1548H36.7714ZM36.7714 54.5836V51.9854C36.8051 51.9854 36.8051 51.9854 36.8051 51.9854C36.8388 51.9854 36.9063 51.9854 36.9401 51.9854C37.5812 51.9516 38.1211 51.6817 38.5597 51.243C39.0659 50.7706 39.3021 50.1633 39.3021 49.4547C39.3021 48.7461 39.0659 48.1724 38.5597 47.6663C38.1211 47.1939 37.5812 46.9577 36.9401 46.8902C36.9063 46.8902 36.8726 46.8902 36.8051 46.8902H36.7714V44.3932H38.1548H36.7714V41.8288C36.8051 41.8288 36.8051 41.8288 36.8051 41.8288C36.8388 41.8288 36.9063 41.8288 36.9401 41.8288C37.5812 41.7951 38.1211 41.5251 38.5597 41.0865C39.0659 40.5803 39.3021 40.0067 39.3021 39.2981C39.3021 38.5895 39.0659 38.0159 38.5597 37.5097C38.1211 37.0373 37.5812 36.8011 36.9401 36.7336C36.9063 36.7336 36.8726 36.7336 36.8051 36.7336H36.7714V34.2367V31.6047C36.8051 31.6047 36.8051 31.6047 36.8051 31.6047C36.8388 31.6047 36.9063 31.6047 36.9401 31.6047C37.5812 31.5372 38.1211 31.301 38.5597 30.8624C39.0659 30.3562 39.3021 29.7489 39.3021 29.0403C39.3021 28.3317 39.0659 27.758 38.5597 27.2519C38.1211 26.7795 37.5812 26.5433 36.9401 26.5096C36.9063 26.5096 36.8726 26.5096 36.8051 26.5096H36.7714V24.0126H38.1548H36.7714V21.4144C36.8051 21.4144 36.8051 21.4144 36.8051 21.4144C36.8388 21.4144 36.9063 21.4144 36.9401 21.4144C37.5812 21.3807 38.1211 21.1107 38.5597 20.6721C39.0659 20.1659 39.3021 19.5585 39.3021 18.8499C39.3021 18.1413 39.0659 17.5677 38.5597 17.0616C38.1211 16.5892 37.5812 16.353 36.9401 16.3192C36.9063 16.3192 36.8726 16.3192 36.8051 16.3192H36.7714V13.7885H38.1548H36.7714V11.2241C36.8051 11.2241 36.8051 11.2241 36.8051 11.2241C36.8388 11.2241 36.9063 11.2241 36.9401 11.2241C37.5812 11.1903 38.1211 10.9204 38.5597 10.4817C39.0659 10.0093 39.3021 9.40196 39.3021 8.69336C39.3021 7.98476 39.0659 7.41113 38.5597 6.90499C38.1211 6.43259 37.5812 6.19639 36.9401 6.12891C36.9063 6.12891 36.8726 6.12891 36.8051 6.12891H36.7714V3.5982H38.1548H36.7714V1H41.5966C44.2623 1.03374 46.8605 1.57363 49.3237 2.6534C51.6519 3.66568 53.744 5.11662 55.5324 6.93873C57.3545 8.76085 58.7379 10.8529 59.7502 13.2149C60.695 15.5094 61.2012 17.9051 61.2686 20.4021V21.4144C61.2012 23.9451 60.695 26.3408 59.7502 28.6354C58.7379 31.0311 57.3545 33.1569 55.5324 34.9453C53.744 36.7674 51.6519 38.1846 49.3237 39.1631C46.8605 40.2091 44.296 40.749 41.5966 40.7828H41.1917L57.5907 57.1143H37.21C37.1425 57.1143 37.0413 57.1143 36.9738 57.1143C36.9401 57.1143 36.9063 57.1143 36.8388 57.1143H36.8051V54.5836H36.7714Z" stroke="#DCDDDE" stroke-miterlimit="10"/>
<path fill-rule="evenodd" clip-rule="evenodd" d="M35.9877 3.28516H37.2757H35.9877ZM35.9877 13.5611H37.2757H35.9877ZM27.0653 3.28516H35.9562H27.0653ZM18.8969 3.28516H20.3107H18.8969ZM8.56078 34.1129H10.2259H8.56078ZM13.9016 23.871H23.7351H13.9016ZM35.9877 23.871H37.2757H35.9877ZM35.9877 44.3888H37.2757H35.9877ZM31.118 23.871H35.9877H31.118ZM17.5774 34.1129H35.9562H17.5774ZM24.709 13.5611H35.9877H24.709ZM35.9877 54.6988H37.2757H35.9877ZM32.8774 44.3888H35.9562H32.8774ZM5.26201 44.3888H18.8969H5.26201ZM13.8074 54.6988H15.5667H13.8074ZM21.7558 54.6988H35.9877H21.7558ZM3 3.28516H9.28336Z" fill="#DCDDDE"/>
<path d="M3 3.28516H9.28336M35.9877 3.28516H37.2757H35.9877ZM35.9877 13.5611H37.2757H35.9877ZM27.0653 3.28516H35.9562H27.0653ZM18.8969 3.28516H20.3107H18.8969ZM8.56078 34.1129H10.2259H8.56078ZM13.9016 23.871H23.7351H13.9016ZM35.9877 23.871H37.2757H35.9877ZM35.9877 44.3888H37.2757H35.9877ZM31.118 23.871H35.9877H31.118ZM17.5774 34.1129H35.9562H17.5774ZM24.709 13.5611H35.9877H24.709ZM35.9877 54.6988H37.2757H35.9877ZM32.8774 44.3888H35.9562H32.8774ZM5.26201 44.3888H18.8969H5.26201ZM13.8074 54.6988H15.5667H13.8074ZM21.7558 54.6988H35.9877H21.7558Z" stroke="#DCDDDE" stroke-width="6" stroke-miterlimit="3" stroke-linecap="round" stroke-linejoin="round"/>
<path d="M77.9996 38.7113V19H85.7218C87.3037 19 88.631 19.2631 89.7035 19.7892C90.7827 20.3154 91.5971 21.0533 92.1468 22.0029C92.7032 22.9461 92.9814 24.0465 92.9814 25.3041C92.9814 26.5682 92.6998 27.6654 92.1367 28.5958C91.5804 29.5197 90.7592 30.2352 89.6733 30.7421C88.5874 31.2425 87.2534 31.4928 85.6715 31.4928H80.1715V28.5284H85.1687C86.0938 28.5284 86.8512 28.4065 87.4411 28.1627C88.031 27.9124 88.4667 27.5499 88.7483 27.0751C89.0365 26.5938 89.1806 26.0035 89.1806 25.3041C89.1806 24.6047 89.0365 24.008 88.7483 23.514C88.46 23.0135 88.021 22.6349 87.4311 22.3782C86.8412 22.1152 86.0804 21.9836 85.1486 21.9836H81.73V38.7113H77.9996ZM88.6377 29.7796L93.7355 38.7113H89.5728L84.5654 29.7796H88.6377Z" fill="#DCDDDE"/>
<path d="M102.77 39C101.262 39 99.9544 38.6824 98.8484 38.0472C97.7423 37.4119 96.8843 36.5233 96.2743 35.3811C95.671 34.239 95.3694 32.9044 95.3694 31.3773C95.3694 29.8502 95.671 28.5124 96.2743 27.3638C96.8843 26.2153 97.7423 25.3234 98.8484 24.6882C99.9544 24.0529 101.262 23.7353 102.77 23.7353C104.278 23.7353 105.585 24.0529 106.691 24.6882C107.797 25.3234 108.652 26.2153 109.255 27.3638C109.865 28.5124 110.17 29.8502 110.17 31.3773C110.17 32.9044 109.865 34.239 109.255 35.3811C108.652 36.5233 107.797 37.4119 106.691 38.0472C105.585 38.6824 104.278 39 102.77 39ZM102.79 36.2089C103.608 36.2089 104.291 35.9939 104.841 35.564C105.391 35.1277 105.8 34.5438 106.068 33.8123C106.343 33.0808 106.48 32.266 106.48 31.3677C106.48 30.4629 106.343 29.6449 106.068 28.9134C105.8 28.1755 105.391 27.5884 104.841 27.1521C104.291 26.7158 103.608 26.4976 102.79 26.4976C101.952 26.4976 101.255 26.7158 100.698 27.1521C100.149 27.5884 99.7365 28.1755 99.4617 28.9134C99.1936 29.6449 99.0595 30.4629 99.0595 31.3677C99.0595 32.266 99.1936 33.0808 99.4617 33.8123C99.7365 34.5438 100.149 35.1277 100.698 35.564C101.255 35.9939 101.952 36.2089 102.79 36.2089Z" fill="#DCDDDE"/>
<path d="M120.097 39C118.548 39 117.211 38.692 116.085 38.076C114.965 37.4536 114.104 36.5746 113.501 35.4389C112.897 34.2968 112.596 32.9525 112.596 31.4062C112.596 29.8855 112.897 28.5508 113.501 27.4023C114.111 26.2474 114.962 25.3491 116.055 24.7074C117.147 24.0594 118.431 23.7353 119.906 23.7353C120.858 23.7353 121.756 23.8829 122.6 24.1781C123.452 24.4668 124.202 24.9159 124.853 25.5255C125.51 26.1351 126.026 26.9115 126.401 27.8547C126.777 28.7915 126.964 29.9079 126.964 31.204V32.2724H114.305V29.924H123.475C123.468 29.2567 123.318 28.6631 123.023 28.1434C122.728 27.6173 122.316 27.2034 121.786 26.9018C121.263 26.6003 120.653 26.4495 119.956 26.4495C119.212 26.4495 118.558 26.6227 117.995 26.9692C117.432 27.3093 116.993 27.7584 116.678 28.3167C116.37 28.8685 116.212 29.4748 116.206 30.1357V32.1858C116.206 33.0456 116.37 33.7834 116.698 34.3994C117.027 35.009 117.486 35.4774 118.076 35.8046C118.666 36.1254 119.356 36.2859 120.147 36.2859C120.677 36.2859 121.156 36.2153 121.585 36.0741C122.014 35.9265 122.386 35.7116 122.701 35.4293C123.016 35.1469 123.254 34.7972 123.415 34.3802L126.813 34.7459C126.599 35.6057 126.19 36.3564 125.587 36.9981C124.99 37.6333 124.226 38.1274 123.294 38.4803C122.362 38.8268 121.297 39 120.097 39Z" fill="#DCDDDE"/>
<path d="M135.775 38.9711C134.561 38.9711 133.476 38.6728 132.517 38.076C131.558 37.4793 130.801 36.6131 130.245 35.4774C129.688 34.3417 129.41 32.9621 129.41 31.3388C129.41 29.6962 129.692 28.3102 130.255 27.1809C130.824 26.0452 131.592 25.1886 132.557 24.6112C133.522 24.0273 134.598 23.7353 135.785 23.7353C136.69 23.7353 137.434 23.8829 138.017 24.1781C138.6 24.4668 139.063 24.8165 139.405 25.2271C139.746 25.6314 140.011 26.0132 140.199 26.3725H140.35V19H144V38.7113H140.42V36.3821H140.199C140.011 36.7414 139.74 37.1232 139.384 37.5274C139.029 37.9252 138.56 38.2653 137.977 38.5476C137.394 38.83 136.66 38.9711 135.775 38.9711ZM136.79 36.1126C137.561 36.1126 138.218 35.9137 138.761 35.5159C139.304 35.1116 139.716 34.5502 139.998 33.8316C140.279 33.1129 140.42 32.2756 140.42 31.3195C140.42 30.3635 140.279 29.5326 139.998 28.8268C139.723 28.1209 139.314 27.5723 138.771 27.1809C138.235 26.7895 137.575 26.5938 136.79 26.5938C135.979 26.5938 135.302 26.796 134.759 27.2002C134.216 27.6044 133.807 28.1627 133.533 28.8749C133.258 29.5871 133.12 30.402 133.12 31.3195C133.12 32.2435 133.258 33.068 133.533 33.7931C133.814 34.5117 134.226 35.0796 134.769 35.4966C135.319 35.9073 135.993 36.1126 136.79 36.1126Z" fill="#DCDDDE"/>
</svg>