<svg xmlns:xlink="http://www.w3.org/1999/xlink" xmlns="http://www.w3.org/2000/svg" width="169" height="37" viewBox="0 0 169 37" fill="none">
<path d="M91.8517 13.2398C91.7507 12.3177 91.3248 11.5998 90.5741 11.086C89.8307 10.5721 88.8635 10.3152 87.6725 10.3152C86.8352 10.3152 86.117 10.4384 85.5179 10.6848C84.9188 10.9311 84.4605 11.2655 84.1429 11.6878C83.8253 12.1101 83.6629 12.5923 83.6556 13.1342C83.6556 13.5847 83.7603 13.9754 83.9696 14.3062C84.1862 14.637 84.4785 14.9186 84.8466 15.1508C85.2147 15.3761 85.6226 15.5661 86.0701 15.721C86.5176 15.8758 86.9687 16.006 87.4235 16.1116L89.5023 16.6184C90.3395 16.8084 91.1444 17.0654 91.9167 17.3891C92.6962 17.7129 93.3928 18.1212 94.0063 18.6139C94.6271 19.1066 95.1179 19.7014 95.4788 20.3982C95.8397 21.095 96.0202 21.9115 96.0202 22.8477C96.0202 24.1146 95.6881 25.2303 95.0241 26.1946C94.36 27.1518 93.4 27.9015 92.1441 28.4434C90.8953 28.9784 89.3832 29.2459 87.6075 29.2459C85.8824 29.2459 84.3847 28.9854 83.1143 28.4646C81.8511 27.9437 80.8623 27.1835 80.1477 26.184C79.4403 25.1845 79.0577 23.9668 79 22.5309H82.9519C83.0096 23.2841 83.2478 23.9105 83.6665 24.4103C84.0851 24.91 84.6301 25.2831 85.3014 25.5294C85.9799 25.7758 86.7377 25.8989 87.575 25.8989C88.4484 25.8989 89.2135 25.7722 89.8704 25.5189C90.5344 25.2584 91.0541 24.8994 91.4295 24.4419C91.8048 23.9774 91.9961 23.4354 92.0033 22.816C91.9961 22.2529 91.8265 21.7883 91.4944 21.4223C91.1624 21.0493 90.6968 20.7396 90.0977 20.4932C89.5059 20.2398 88.8129 20.0146 88.0189 19.8175L85.4962 19.184C83.6701 18.7265 82.2265 18.0332 81.1654 17.1041C80.1116 16.1679 79.5847 14.9256 79.5847 13.3771C79.5847 12.1031 79.9383 10.9874 80.6457 10.0302C81.3603 9.0729 82.3311 8.33032 83.5582 7.80241C84.7853 7.26747 86.1747 7 87.7266 7C89.3002 7 90.6788 7.26747 91.8626 7.80241C93.0535 8.33032 93.9883 9.06586 94.6668 10.009C95.3453 10.9452 95.6953 12.0221 95.717 13.2398H91.8517Z" fill="#DCDDDE"/>
<path d="M103.347 19.4163V28.9186H99.428V7.29563H103.261V15.457H103.456C103.845 14.542 104.448 13.8205 105.264 13.2926C106.087 12.7577 107.133 12.4902 108.404 12.4902C109.558 12.4902 110.565 12.726 111.424 13.1976C112.283 13.6692 112.947 14.359 113.417 15.267C113.893 16.175 114.131 17.2836 114.131 18.5928V28.9186H110.212V19.184C110.212 18.093 109.923 17.2448 109.346 16.6395C108.775 16.0271 107.974 15.721 106.942 15.721C106.249 15.721 105.628 15.8688 105.08 16.1644C104.538 16.453 104.112 16.8718 103.802 17.4208C103.499 17.9698 103.347 18.635 103.347 19.4163Z" fill="#DCDDDE"/>
<path d="M122.912 29.2459C121.858 29.2459 120.909 29.0628 120.064 28.6968C119.227 28.3238 118.563 27.7748 118.072 27.0498C117.589 26.3248 117.347 25.4309 117.347 24.368C117.347 23.453 117.52 22.6963 117.866 22.098C118.213 21.4997 118.686 21.0211 119.285 20.6621C119.884 20.3032 120.559 20.0322 121.309 19.8492C122.067 19.6591 122.851 19.5219 123.659 19.4374C124.633 19.3389 125.424 19.2509 126.03 19.1735C126.636 19.089 127.077 18.9623 127.351 18.7934C127.632 18.6174 127.773 18.3464 127.773 17.9804V17.917C127.773 17.1217 127.531 16.5058 127.048 16.0694C126.564 15.633 125.868 15.4148 124.958 15.4148C123.998 15.4148 123.237 15.6189 122.674 16.0271C122.118 16.4354 121.743 16.9175 121.548 17.4736L117.888 16.9668C118.177 15.9814 118.653 15.1579 119.317 14.4962C119.981 13.8276 120.793 13.3278 121.753 12.997C122.713 12.6591 123.774 12.4902 124.937 12.4902C125.738 12.4902 126.535 12.5817 127.329 12.7647C128.123 12.9477 128.849 13.2504 129.506 13.6727C130.162 14.088 130.689 14.6546 131.086 15.3725C131.491 16.0905 131.693 16.9879 131.693 18.0649V28.9186H127.925V26.6908H127.795C127.557 27.1413 127.221 27.5636 126.788 27.9578C126.362 28.3449 125.824 28.6581 125.175 28.8974C124.532 29.1297 123.778 29.2459 122.912 29.2459ZM123.93 26.4374C124.716 26.4374 125.399 26.2861 125.976 25.9834C126.553 25.6737 126.997 25.2655 127.308 24.7587C127.625 24.2519 127.784 23.6993 127.784 23.1011V21.19C127.661 21.2886 127.452 21.3801 127.156 21.4646C126.867 21.549 126.543 21.6229 126.182 21.6863C125.821 21.7496 125.463 21.8059 125.11 21.8552C124.756 21.9045 124.449 21.9467 124.189 21.9819C123.605 22.0593 123.082 22.186 122.62 22.362C122.158 22.538 121.793 22.7843 121.526 23.1011C121.259 23.4108 121.125 23.812 121.125 24.3047C121.125 25.0085 121.389 25.54 121.916 25.8989C122.443 26.2579 123.114 26.4374 123.93 26.4374Z" fill="#DCDDDE"/>
<path d="M135.634 35V12.7014H139.488V15.3831H139.715C139.918 14.9889 140.203 14.5701 140.571 14.1267C140.939 13.6762 141.437 13.2926 142.065 12.9759C142.693 12.6521 143.494 12.4902 144.469 12.4902C145.753 12.4902 146.912 12.8105 147.944 13.451C148.983 14.0845 149.806 15.0241 150.413 16.27C151.026 17.5088 151.333 19.0292 151.333 20.8311C151.333 22.6119 151.033 24.1252 150.434 25.371C149.835 26.6169 149.02 27.5671 147.987 28.2217C146.955 28.8763 145.786 29.2036 144.479 29.2036C143.527 29.2036 142.736 29.0488 142.108 28.7391C141.48 28.4294 140.975 28.0563 140.592 27.6199C140.217 27.1765 139.925 26.7577 139.715 26.3635H139.553V35H135.634ZM139.477 20.81C139.477 21.8587 139.629 22.7773 139.932 23.5656C140.242 24.3539 140.686 24.9698 141.264 25.4133C141.848 25.8497 142.556 26.0679 143.386 26.0679C144.252 26.0679 144.977 25.8426 145.562 25.3922C146.147 24.9346 146.587 24.3117 146.883 23.5234C147.186 22.728 147.338 21.8235 147.338 20.81C147.338 19.8034 147.19 18.9095 146.894 18.1282C146.598 17.3469 146.158 16.7345 145.573 16.2911C144.988 15.8477 144.259 15.6259 143.386 15.6259C142.549 15.6259 141.838 15.8406 141.253 16.27C140.668 16.6993 140.224 17.3012 139.921 18.0754C139.625 18.8497 139.477 19.7612 139.477 20.81Z" fill="#DCDDDE"/>
<path d="M156.56 34.9683C156.026 34.9683 155.531 34.9261 155.076 34.8416C154.629 34.7642 154.272 34.6692 154.005 34.5566L154.914 31.5897C155.766 31.8291 156.48 31.8678 157.058 31.7059C157.642 31.551 158.122 31.0266 158.498 30.1327L158.833 29.2564L152.803 12.7014H156.96L160.793 24.9487H160.966L164.81 12.7014L169 12.7225L162.32 30.8824C162.009 31.727 161.598 32.4555 161.085 33.0679C160.573 33.6802 159.945 34.1483 159.202 34.4721C158.465 34.8029 157.585 34.9683 156.56 34.9683Z" fill="#DCDDDE"/>
<path d="M18.6667 37C8.35091 37 0 28.7237 0 18.5C0 8.27632 8.35091 0 18.6667 0V37ZM24.6666 37V18.5C24.6666 8.27632 33.0175 0 43.3333 0C53.6491 0 62 8.27632 62 18.5C62 28.7237 53.6491 37 43.3333 37H24.6666Z" fill="#DCDDDE"/>
</svg>